<?xml version="1.0" encoding="utf-8"?>
<!-- Generator: Adobe Illustrator 19.0.0, SVG Export Plug-In . SVG Version: 6.00 Build 0)  -->
<svg version="1.1" id="Capa_1" xmlns="http://www.w3.org/2000/svg" xmlns:xlink="http://www.w3.org/1999/xlink" x="0px" y="0px"
	 viewBox="-173 -26 612 612" style="enable-background:new -173 -26 612 612;" xml:space="preserve">
<style type="text/css">
	.st0{fill:#FFFFFF;}
	.st1{fill:none;stroke:#000000;stroke-width:2;stroke-miterlimit:10;}
</style>
<path d="M397.6,50.5H87c-14.5,0-24.9,7.7-33.1,22.9L-58,280L53.8,486.5c8.3,12.8,18.6,23,33.1,23h310.6c22.8,0,41.4-23,41.4-51v-357
	C439,73.4,420.4,50.5,397.6,50.5z"/>
<polygon class="st0" points="354.5,371.8 318.8,407.5 227,315.7 135.2,407.5 99.5,371.8 191.3,280 99.5,188.2 135.2,152.5 
	227,244.3 318.8,152.5 354.5,188.2 262.7,280 "/>
<g id="XMLID_1_">
	<g>
		<polygon points="-98,280 29.5,509.5 -10.5,509.5 -138,280 		"/>
		<polygon points="28.5,50.5 -98,280 -138,280 -11.5,50.5 		"/>
	</g>
	<g>
		<line class="st1" x1="28.5" y1="50.5" x2="-98" y2="280"/>
		<line class="st1" x1="-98" y1="280" x2="29.5" y2="509.5"/>
		<line class="st1" x1="29.5" y1="509.5" x2="-10.5" y2="509.5"/>
		<line class="st1" x1="-98" y1="280" x2="-138" y2="280"/>
		<line class="st1" x1="28.5" y1="50.5" x2="-11.5" y2="50.5"/>
		<line class="st1" x1="-11.5" y1="50.5" x2="-138" y2="280"/>
		<line class="st1" x1="-138" y1="280" x2="-10.5" y2="509.5"/>
	</g>
</g>
</svg>
